<?xml version="1.0" encoding="utf-8" standalone="no"?>
<!DOCTYPE svg PUBLIC "-//W3C//DTD SVG 1.1//EN"
  "http://www.w3.org/Graphics/SVG/1.1/DTD/svg11.dtd">
<svg xmlns:xlink="http://www.w3.org/1999/xlink" width="576pt" height="576pt" viewBox="0 0 576 576" xmlns="http://www.w3.org/2000/svg" version="1.1">
 <metadata>
  <rdf:RDF xmlns:dc="http://purl.org/dc/elements/1.1/" xmlns:cc="http://creativecommons.org/ns#" xmlns:rdf="http://www.w3.org/1999/02/22-rdf-syntax-ns#">
   <cc:Work>
    <dc:type rdf:resource="http://purl.org/dc/dcmitype/StillImage"/>
    <dc:date>2025-07-03T12:46:07.208369</dc:date>
    <dc:format>image/svg+xml</dc:format>
    <dc:creator>
     <cc:Agent>
      <dc:title>Matplotlib v3.9.2, https://matplotlib.org/</dc:title>
     </cc:Agent>
    </dc:creator>
   </cc:Work>
  </rdf:RDF>
 </metadata>
 <defs>
  <style type="text/css">*{stroke-linejoin: round; stroke-linecap: butt}</style>
 </defs>
 <g id="figure_1">
  <g id="patch_1">
   <path d="M 0 576 
L 576 576 
L 576 0 
L 0 0 
z
" style="fill: #e2e6f0"/>
  </g>
  <g id="axes_1">
   <g id="line2d_1">
    <path d="M 274.569946 144.486467 
L 269.086249 145.36458 
L 263.639401 146.448029 
L 258.237088 147.735288 
L 252.886933 149.224538 
L 247.596487 150.913678 
L 242.373214 152.800326 
L 237.224486 154.881819 
L 232.157567 157.155219 
L 227.179607 159.617318 
L 222.297631 162.264643 
L 217.518528 165.093457 
L 212.849041 168.099769 
L 208.29576 171.279337 
L 203.86511 174.627673 
L 199.563343 178.140054 
L 195.396529 181.811522 
L 191.370548 185.636898 
L 187.491082 189.610782 
L 183.763603 193.727568 
L 180.193374 197.981445 
L 176.78543 202.366412 
L 173.544581 206.876282 
L 170.475401 211.504688 
L 167.582221 216.245102 
L 164.869122 221.090834 
L 162.339933 226.035045 
L 159.998224 231.070759 
L 157.847298 236.19087 
L 155.890192 241.388153 
L 154.129666 246.655274 
L 152.568205 251.984801 
L 151.208012 257.369213 
L 150.051006 262.800912 
L 149.098821 268.272234 
L 148.3528 273.775457 
L 147.813995 279.302817 
L 147.483167 284.846514 
L 147.360783 290.398724 
L 147.447016 295.951613 
L 147.741743 301.497346 
L 148.244549 307.028097 
L 148.954724 312.536061 
L 149.871267 318.013466 
L 150.992884 323.452583 
L 152.317991 328.845737 
L 153.84472 334.185317 
L 155.570916 339.463789 
L 157.494143 344.673704 
L 159.611687 349.807711 
L 161.920561 354.858564 
L 164.417505 359.819138 
L 167.098997 364.68243 
L 169.961253 369.44158 
L 173.000234 374.089872 
L 176.211651 378.620746 
L 179.590973 383.027808 
L 183.133432 387.304841 
L 186.834028 391.445807 
L 190.687539 395.444866 
L 194.688529 399.296372 
L 198.83135 402.994892 
L 203.110158 406.535206 
L 207.518914 409.912318 
L 212.051397 413.121463 
L 216.701211 416.158114 
L 221.461795 419.017983 
L 226.326432 421.697037 
L 231.288256 424.191495 
L 236.340267 426.497836 
L 241.475334 428.612806 
L 246.686213 430.533421 
L 251.965549 432.256971 
L 257.305894 433.781023 
L 262.699711 435.103427 
L 268.13939 436.222317 
L 273.617254 437.136113 
L 279.125573 437.843527 
L 284.656575 438.343561 
L 290.202455 438.635508 
L 295.755387 438.718957 
L 301.307536 438.59379 
L 306.851065 438.260183 
L 312.378155 437.718607 
L 317.881003 436.969827 
L 323.351847 436.0149 
L 328.782966 434.855172 
L 334.166695 433.49228 
L 339.495439 431.928147 
L 344.761677 430.164981 
L 349.957978 428.205269 
L 355.07701 426.051777 
L 360.111549 423.707544 
L 365.054492 421.175877 
L 369.898863 418.460349 
L 374.637826 415.564792 
L 379.264693 412.493293 
L 383.772937 409.250184 
L 388.156195 405.840042 
L 392.408283 402.26768 
L 396.523199 398.538139 
L 400.495138 394.656681 
L 404.318495 390.628783 
L 407.987874 386.460129 
L 411.498098 382.156602 
L 414.844213 377.724274 
L 418.021498 373.169399 
L 421.025469 368.498406 
L 423.851887 363.717886 
L 426.496764 358.834583 
L 428.956368 353.85539 
L 431.227227 348.787332 
L 433.306138 343.63756 
L 435.190167 338.413342 
L 436.876656 333.12205 
L 438.363224 327.77115 
L 439.647774 322.368192 
L 440.728493 316.920802 
L 441.603856 311.436665 
L 442.272629 305.923521 
L 442.733866 300.389148 
L 442.986918 294.841357 
L 443.031428 289.287977 
L 442.867332 283.736843 
L 442.494862 278.195788 
L 441.914544 272.672633 
L 441.127196 267.175169 
L 440.13393 261.711156 
L 438.936148 256.288303 
L 437.535538 250.914263 
L 435.934079 245.596618 
L 434.134029 240.342873 
L 432.137929 235.160441 
L 429.948595 230.056635 
L 427.569117 225.038657 
L 425.002853 220.113588 
L 422.253423 215.288378 
L 419.324708 210.569835 
L 416.22084 205.964619 
L 412.946198 201.479226 
L 409.505405 197.119988 
L 405.903316 192.893054 
L 402.145012 188.804391 
L 398.235798 184.859766 
L 394.181189 181.064747 
L 389.986908 177.424689 
L 385.658873 173.944728 
L 381.203191 170.629775 
L 376.62615 167.484507 
L 371.934208 164.513363 
L 367.133985 161.720535 
L 362.232257 159.109965 
L 357.235939 156.685336 
L 352.152082 154.45007 
L 346.98786 152.40732 
L 341.75056 150.559969 
L 336.447572 148.910625 
L 331.086379 147.461614 
L 325.674548 146.214982 
L 320.219713 145.172486 
L 315.830054 144.486467 
L 315.830054 144.486467 
" clip-path="url(#p714e33da67)" style="fill: none; stroke: #330099; stroke-width: 5; stroke-linecap: round"/>
   </g>
   <g id="line2d_2">
    <path d="M 295.2 397.3248 
L 295.2 438.72 
" clip-path="url(#p714e33da67)" style="fill: none; stroke: #330099; stroke-width: 5; stroke-linecap: round"/>
   </g>
   <g id="line2d_3">
    <path d="M 392.271711 334.555833 
L 394.164437 330.078669 
L 395.850793 325.519765 
L 397.327262 320.888627 
L 398.590767 316.194912 
L 399.638671 311.448409 
L 400.46879 306.659014 
L 401.079393 301.836715 
L 401.469206 296.991568 
L 401.637417 292.133677 
L 401.583675 287.273171 
L 401.308091 282.420187 
L 400.811241 277.584844 
L 400.094161 272.777226 
L 399.158346 268.007356 
L 398.005747 263.285184 
L 396.638768 258.620554 
L 395.060259 254.023195 
L 393.273513 249.502693 
L 391.282254 245.068474 
L 389.090636 240.729786 
L 386.703228 236.495677 
L 384.12501 232.374974 
L 381.361357 228.376271 
L 378.418032 224.507907 
L 375.301173 220.777949 
L 372.017279 217.194173 
L 368.573199 213.764054 
L 364.976115 210.494745 
L 361.233527 207.393062 
L 357.353239 204.465474 
L 353.343344 201.718086 
L 349.212203 199.156626 
L 344.968431 196.786436 
L 340.620877 194.612459 
L 336.178607 192.639228 
L 331.650885 190.870858 
L 327.047152 189.311036 
L 322.377008 187.963016 
L 317.650193 186.829607 
L 312.876562 185.913174 
L 308.06607 185.215627 
L 303.228749 184.738422 
L 298.374685 184.482553 
L 293.514002 184.448553 
L 288.656834 184.636495 
L 283.81331 185.045985 
L 278.993531 185.67617 
L 274.207548 186.525736 
L 269.46534 187.592911 
L 264.776796 188.87547 
L 260.151693 190.370739 
L 255.599676 192.075598 
L 251.130238 193.986494 
L 246.752698 196.099441 
L 242.476185 198.410033 
L 238.309616 200.913452 
L 234.261681 203.604478 
L 230.34082 206.477499 
L 226.555209 209.526524 
L 222.912742 212.745195 
L 219.421016 216.126799 
L 216.087311 219.664286 
L 212.918579 223.350279 
L 209.921429 227.17709 
L 207.102108 231.136741 
L 204.466498 235.220975 
L 202.020094 239.421273 
L 199.767997 243.728878 
L 197.714904 248.134807 
L 195.865096 252.629872 
L 194.22243 257.2047 
L 192.790332 261.849751 
L 191.571788 266.555338 
L 190.569339 271.31165 
L 189.785076 276.108767 
L 189.220634 280.936687 
L 188.87719 285.785341 
L 188.75546 290.644619 
L 188.855698 295.504388 
L 189.177696 300.354514 
L 189.72078 305.184882 
L 190.48382 309.985421 
L 191.465224 314.746119 
L 192.662945 319.45705 
L 194.074486 324.108389 
L 195.696903 328.690437 
L 197.526813 333.193639 
L 199.560401 337.608605 
L 201.793425 341.926128 
L 204.221229 346.137205 
L 206.83875 350.233054 
L 209.640531 354.205135 
L 212.620728 358.045165 
L 215.773127 361.745135 
L 219.091155 365.297331 
L 222.567891 368.694345 
L 226.196087 371.929093 
L 229.968177 374.99483 
L 233.876293 377.885163 
L 237.912288 380.594065 
L 242.067744 383.115887 
L 246.333997 385.44537 
L 250.702149 387.577656 
L 255.163093 389.5083 
L 259.707525 391.233274 
L 264.32597 392.748983 
L 269.008795 394.052265 
L 273.746238 395.140402 
L 278.528417 396.011127 
L 283.345362 396.662621 
L 288.187027 397.093529 
L 293.043316 397.302949 
L 297.904103 397.290447 
L 302.75925 397.056048 
L 307.598635 396.600241 
L 312.412164 395.923976 
L 317.189801 395.028663 
L 321.921584 393.91617 
L 326.597643 392.588817 
L 331.20823 391.049371 
L 335.743728 389.301042 
L 340.194682 387.347477 
L 344.551808 385.192749 
L 348.806021 382.841351 
L 352.94845 380.298186 
L 356.970456 377.568559 
L 360.863653 374.65816 
L 364.619922 371.57306 
L 368.23143 368.319691 
L 371.690646 364.904837 
L 374.990357 361.33562 
L 378.123682 357.619482 
L 381.084086 353.764173 
L 381.560236 353.108652 
L 381.560236 353.108652 
" clip-path="url(#p714e33da67)" style="fill: none; stroke: #330099; stroke-width: 5; stroke-linecap: round"/>
   </g>
   <g id="line2d_4">
    <path d="M 372.516481 335.518691 
L 405.968175 354.832036 
" clip-path="url(#p714e33da67)" style="fill: none; stroke: #330099; stroke-width: 5; stroke-linecap: round"/>
   </g>
   <g id="line2d_5">
    <path d="M 356.326629 313.128274 
L 357.478525 309.663925 
L 358.43425 306.140409 
L 359.190795 302.568824 
L 359.745776 298.960421 
L 360.097446 295.326566 
L 360.244696 291.678704 
L 360.187063 288.028327 
L 359.924729 284.386932 
L 359.458519 280.76599 
L 358.789902 277.176905 
L 357.920985 273.630984 
L 356.854503 270.139395 
L 355.593817 266.713136 
L 354.142898 263.363001 
L 352.506315 260.09954 
L 350.689224 256.933035 
L 348.697349 253.873458 
L 346.536963 250.930448 
L 344.214872 248.113274 
L 341.738389 245.430811 
L 339.115316 242.891507 
L 336.353915 240.503361 
L 333.462884 238.273896 
L 330.451329 236.210134 
L 327.328737 234.318575 
L 324.104942 232.605179 
L 320.790101 231.075341 
L 317.394654 229.733882 
L 313.929296 228.585025 
L 310.404943 227.63239 
L 306.832697 226.878978 
L 303.223808 226.327161 
L 299.589646 225.978679 
L 295.941657 225.834628 
L 292.291331 225.895463 
L 288.650168 226.160991 
L 285.029636 226.630376 
L 281.441139 227.302141 
L 277.895981 228.174168 
L 274.405329 229.243711 
L 270.980177 230.507402 
L 267.631315 231.961259 
L 264.369292 233.600703 
L 261.204381 235.42057 
L 258.146553 237.415128 
L 255.205438 239.578095 
L 252.390302 241.902656 
L 249.710012 244.38149 
L 247.173009 247.006789 
L 245.369115 249.066923 
L 245.369115 249.066923 
" clip-path="url(#p714e33da67)" style="fill: none; stroke: #330099; stroke-width: 5; stroke-linecap: round"/>
   </g>
   <g id="line2d_6">
    <path d="M 234.073371 268.631726 
L 232.921475 272.096075 
L 231.96575 275.619591 
L 231.209205 279.191176 
L 230.654224 282.799579 
L 230.302554 286.433434 
L 230.155304 290.081296 
L 230.212937 293.731673 
L 230.475271 297.373068 
L 230.941481 300.99401 
L 231.610098 304.583095 
L 232.479015 308.129016 
L 233.545497 311.620605 
L 234.806183 315.046864 
L 236.257102 318.396999 
L 237.893685 321.66046 
L 239.710776 324.826965 
L 241.702651 327.886542 
L 243.863037 330.829552 
L 246.185128 333.646726 
L 248.661611 336.329189 
L 251.284684 338.868493 
L 254.046085 341.256639 
L 256.937116 343.486104 
L 259.948671 345.549866 
L 263.071263 347.441425 
L 266.295058 349.154821 
L 269.609899 350.684659 
L 273.005346 352.026118 
L 276.470704 353.174975 
L 279.995057 354.12761 
L 283.567303 354.881022 
L 287.176192 355.432839 
L 290.810354 355.781321 
L 294.458343 355.925372 
L 298.108669 355.864537 
L 301.749832 355.599009 
L 305.370364 355.129624 
L 308.958861 354.457859 
L 312.504019 353.585832 
L 315.994671 352.516289 
L 319.419823 351.252598 
L 322.768685 349.798741 
L 326.030708 348.159297 
L 329.195619 346.33943 
L 332.253447 344.344872 
L 335.194562 342.181905 
L 338.009698 339.857344 
L 340.689988 337.37851 
L 343.226991 334.753211 
L 345.030885 332.693077 
L 345.030885 332.693077 
" clip-path="url(#p714e33da67)" style="fill: none; stroke: #330099; stroke-width: 5; stroke-linecap: round"/>
   </g>
   <g id="line2d_7">
    <path d="M 356.326629 313.128274 
L 316.997655 290.42168 
" clip-path="url(#p714e33da67)" style="fill: none; stroke: #330099; stroke-width: 5; stroke-linecap: round"/>
   </g>
   <g id="line2d_8">
    <path d="M 234.073371 268.631726 
L 273.402345 291.33832 
" clip-path="url(#p714e33da67)" style="fill: none; stroke: #330099; stroke-width: 5; stroke-linecap: round"/>
   </g>
  </g>
 </g>
 <defs>
  <clipPath id="p714e33da67">
   <rect x="73.44" y="69.12" width="443.52" height="443.52"/>
  </clipPath>
 </defs>
</svg>
